<mxfile host="app.diagrams.net" agent="Mozilla/5.0 (Windows NT 10.0; Win64; x64) AppleWebKit/537.36 (KHTML, like Gecko) Chrome/140.0.0.0 Safari/537.36" version="28.2.5">
  <diagram name="Página-1" id="rrR3JAVCXO4Lsw-wPT3y">
    <mxGraphModel dx="1214" dy="624" grid="1" gridSize="10" guides="1" tooltips="1" connect="1" arrows="1" fold="1" page="1" pageScale="1" pageWidth="827" pageHeight="1169" math="0" shadow="0">
      <root>
        <mxCell id="0" />
        <mxCell id="1" parent="0" />
        <mxCell id="-4wxRqZX8vaEymhzz5Xd-1" value="Usuario" style="shape=umlActor;verticalLabelPosition=bottom;verticalAlign=top;html=1;outlineConnect=0;" parent="1" vertex="1">
          <mxGeometry x="450" y="40" width="30" height="60" as="geometry" />
        </mxCell>
        <mxCell id="-4wxRqZX8vaEymhzz5Xd-3" value="V_ProductFilters" style="rounded=0;whiteSpace=wrap;html=1;fillColor=#ffe6cc;strokeColor=#d79b00;" parent="1" vertex="1">
          <mxGeometry x="570" y="80" width="100" height="40" as="geometry" />
        </mxCell>
        <mxCell id="-4wxRqZX8vaEymhzz5Xd-4" value="C_RouterNavigation" style="rounded=0;whiteSpace=wrap;html=1;fillColor=#e1d5e7;strokeColor=#9673a6;" parent="1" vertex="1">
          <mxGeometry x="740" y="80" width="120" height="40" as="geometry" />
        </mxCell>
        <mxCell id="-4wxRqZX8vaEymhzz5Xd-5" value="V_ProductList" style="rounded=0;whiteSpace=wrap;html=1;fillColor=#ffe6cc;strokeColor=#d79b00;" parent="1" vertex="1">
          <mxGeometry x="980" y="80" width="100" height="40" as="geometry" />
        </mxCell>
        <mxCell id="-4wxRqZX8vaEymhzz5Xd-7" value="" style="endArrow=none;dashed=1;html=1;dashPattern=1 3;strokeWidth=2;rounded=0;entryX=0.5;entryY=1;entryDx=0;entryDy=0;" parent="1" edge="1">
          <mxGeometry width="50" height="50" relative="1" as="geometry">
            <mxPoint x="465" y="1040" as="sourcePoint" />
            <mxPoint x="465" y="120" as="targetPoint" />
          </mxGeometry>
        </mxCell>
        <mxCell id="-4wxRqZX8vaEymhzz5Xd-8" value="" style="endArrow=none;dashed=1;html=1;dashPattern=1 3;strokeWidth=2;rounded=0;entryX=0.5;entryY=1;entryDx=0;entryDy=0;" parent="1" edge="1">
          <mxGeometry width="50" height="50" relative="1" as="geometry">
            <mxPoint x="620" y="1040" as="sourcePoint" />
            <mxPoint x="620" y="120" as="targetPoint" />
          </mxGeometry>
        </mxCell>
        <mxCell id="-4wxRqZX8vaEymhzz5Xd-9" value="" style="endArrow=none;dashed=1;html=1;dashPattern=1 3;strokeWidth=2;rounded=0;entryX=0.5;entryY=1;entryDx=0;entryDy=0;" parent="1" edge="1">
          <mxGeometry width="50" height="50" relative="1" as="geometry">
            <mxPoint x="800" y="1040" as="sourcePoint" />
            <mxPoint x="799.5" y="120" as="targetPoint" />
          </mxGeometry>
        </mxCell>
        <mxCell id="-4wxRqZX8vaEymhzz5Xd-10" value="" style="endArrow=none;dashed=1;html=1;dashPattern=1 3;strokeWidth=2;rounded=0;entryX=0.5;entryY=1;entryDx=0;entryDy=0;" parent="1" target="-4wxRqZX8vaEymhzz5Xd-5" edge="1">
          <mxGeometry width="50" height="50" relative="1" as="geometry">
            <mxPoint x="1030" y="1040" as="sourcePoint" />
            <mxPoint x="1030" y="130" as="targetPoint" />
          </mxGeometry>
        </mxCell>
        <mxCell id="-4wxRqZX8vaEymhzz5Xd-13" value="" style="endArrow=classic;html=1;rounded=0;" parent="1" edge="1">
          <mxGeometry width="50" height="50" relative="1" as="geometry">
            <mxPoint x="470" y="200" as="sourcePoint" />
            <mxPoint x="620" y="200" as="targetPoint" />
          </mxGeometry>
        </mxCell>
        <mxCell id="-4wxRqZX8vaEymhzz5Xd-14" value="Hace clic en el corazón&lt;div&gt;relleno para remover&lt;/div&gt;" style="text;html=1;align=center;verticalAlign=middle;resizable=0;points=[];autosize=1;strokeColor=none;fillColor=none;" parent="1" vertex="1">
          <mxGeometry x="460" y="158" width="150" height="40" as="geometry" />
        </mxCell>
        <mxCell id="-4wxRqZX8vaEymhzz5Xd-18" value="" style="endArrow=classic;html=1;rounded=0;" parent="1" edge="1">
          <mxGeometry width="50" height="50" relative="1" as="geometry">
            <mxPoint x="620" y="220" as="sourcePoint" />
            <mxPoint x="620" y="240" as="targetPoint" />
            <Array as="points">
              <mxPoint x="660" y="220" />
              <mxPoint x="660" y="240" />
            </Array>
          </mxGeometry>
        </mxCell>
        <mxCell id="-4wxRqZX8vaEymhzz5Xd-27" value="" style="endArrow=classic;html=1;rounded=0;" parent="1" edge="1">
          <mxGeometry width="50" height="50" relative="1" as="geometry">
            <mxPoint x="1390" y="790" as="sourcePoint" />
            <mxPoint x="1210" y="790" as="targetPoint" />
          </mxGeometry>
        </mxCell>
        <mxCell id="CV40pXLIkPJn7zv-MI90-1" value="C_API Route" style="rounded=0;whiteSpace=wrap;html=1;fillColor=#e1d5e7;strokeColor=#9673a6;" parent="1" vertex="1">
          <mxGeometry x="1160" y="80" width="100" height="40" as="geometry" />
        </mxCell>
        <mxCell id="CV40pXLIkPJn7zv-MI90-2" value="C_filterAndSortProducts" style="rounded=0;whiteSpace=wrap;html=1;fillColor=#e1d5e7;strokeColor=#9673a6;" parent="1" vertex="1">
          <mxGeometry x="1320" y="80" width="140" height="40" as="geometry" />
        </mxCell>
        <mxCell id="CV40pXLIkPJn7zv-MI90-3" value="PRODUCTS_DATA" style="rounded=0;whiteSpace=wrap;html=1;fillColor=#d5e8d4;strokeColor=#82b366;" parent="1" vertex="1">
          <mxGeometry x="1560" y="80" width="110" height="40" as="geometry" />
        </mxCell>
        <mxCell id="CV40pXLIkPJn7zv-MI90-4" value="" style="endArrow=none;dashed=1;html=1;dashPattern=1 3;strokeWidth=2;rounded=0;entryX=0.5;entryY=1;entryDx=0;entryDy=0;" parent="1" edge="1">
          <mxGeometry width="50" height="50" relative="1" as="geometry">
            <mxPoint x="1210" y="1040" as="sourcePoint" />
            <mxPoint x="1210" y="120" as="targetPoint" />
          </mxGeometry>
        </mxCell>
        <mxCell id="CV40pXLIkPJn7zv-MI90-5" value="" style="endArrow=none;dashed=1;html=1;dashPattern=1 3;strokeWidth=2;rounded=0;entryX=0.5;entryY=1;entryDx=0;entryDy=0;" parent="1" edge="1">
          <mxGeometry width="50" height="50" relative="1" as="geometry">
            <mxPoint x="1390" y="1040" as="sourcePoint" />
            <mxPoint x="1389.5" y="120" as="targetPoint" />
          </mxGeometry>
        </mxCell>
        <mxCell id="CV40pXLIkPJn7zv-MI90-6" value="" style="endArrow=none;dashed=1;html=1;dashPattern=1 3;strokeWidth=2;rounded=0;entryX=0.5;entryY=1;entryDx=0;entryDy=0;" parent="1" edge="1">
          <mxGeometry width="50" height="50" relative="1" as="geometry">
            <mxPoint x="1615" y="1040" as="sourcePoint" />
            <mxPoint x="1614.5" y="120" as="targetPoint" />
          </mxGeometry>
        </mxCell>
        <mxCell id="CV40pXLIkPJn7zv-MI90-17" value="handleCategoryChange()" style="text;html=1;align=center;verticalAlign=middle;resizable=0;points=[];autosize=1;strokeColor=none;fillColor=none;" parent="1" vertex="1">
          <mxGeometry x="610" y="198" width="160" height="30" as="geometry" />
        </mxCell>
        <mxCell id="CV40pXLIkPJn7zv-MI90-18" value="" style="endArrow=classic;html=1;rounded=0;" parent="1" edge="1">
          <mxGeometry width="50" height="50" relative="1" as="geometry">
            <mxPoint x="620" y="280" as="sourcePoint" />
            <mxPoint x="620" y="300" as="targetPoint" />
            <Array as="points">
              <mxPoint x="660" y="280" />
              <mxPoint x="660" y="300" />
            </Array>
          </mxGeometry>
        </mxCell>
        <mxCell id="CV40pXLIkPJn7zv-MI90-19" value="setPriceRange()" style="text;html=1;align=center;verticalAlign=middle;resizable=0;points=[];autosize=1;strokeColor=none;fillColor=none;" parent="1" vertex="1">
          <mxGeometry x="610" y="260" width="110" height="30" as="geometry" />
        </mxCell>
        <mxCell id="CV40pXLIkPJn7zv-MI90-20" value="" style="endArrow=classic;html=1;rounded=0;" parent="1" edge="1">
          <mxGeometry width="50" height="50" relative="1" as="geometry">
            <mxPoint x="620" y="340" as="sourcePoint" />
            <mxPoint x="620" y="360" as="targetPoint" />
            <Array as="points">
              <mxPoint x="660" y="340" />
              <mxPoint x="660" y="360" />
            </Array>
          </mxGeometry>
        </mxCell>
        <mxCell id="CV40pXLIkPJn7zv-MI90-21" value="setSortBy()" style="text;html=1;align=center;verticalAlign=middle;resizable=0;points=[];autosize=1;strokeColor=none;fillColor=none;" parent="1" vertex="1">
          <mxGeometry x="610" y="318" width="80" height="30" as="geometry" />
        </mxCell>
        <mxCell id="CV40pXLIkPJn7zv-MI90-22" value="" style="endArrow=classic;html=1;rounded=0;" parent="1" edge="1">
          <mxGeometry width="50" height="50" relative="1" as="geometry">
            <mxPoint x="470" y="410" as="sourcePoint" />
            <mxPoint x="620" y="410" as="targetPoint" />
          </mxGeometry>
        </mxCell>
        <mxCell id="CV40pXLIkPJn7zv-MI90-23" value="Hace clic en &quot;Aplicar Filtros&quot;" style="text;html=1;align=center;verticalAlign=middle;resizable=0;points=[];autosize=1;strokeColor=none;fillColor=none;" parent="1" vertex="1">
          <mxGeometry x="460" y="388" width="170" height="30" as="geometry" />
        </mxCell>
        <mxCell id="CV40pXLIkPJn7zv-MI90-24" value="" style="endArrow=classic;html=1;rounded=0;" parent="1" edge="1">
          <mxGeometry width="50" height="50" relative="1" as="geometry">
            <mxPoint x="620" y="450" as="sourcePoint" />
            <mxPoint x="800" y="450" as="targetPoint" />
          </mxGeometry>
        </mxCell>
        <mxCell id="CV40pXLIkPJn7zv-MI90-25" value="applyFilters()&lt;div&gt;Actualiza URL params&lt;/div&gt;" style="text;html=1;align=left;verticalAlign=middle;resizable=0;points=[];autosize=1;strokeColor=none;fillColor=none;" parent="1" vertex="1">
          <mxGeometry x="620" y="418" width="140" height="40" as="geometry" />
        </mxCell>
        <mxCell id="CV40pXLIkPJn7zv-MI90-26" value="" style="endArrow=classic;html=1;rounded=0;" parent="1" edge="1">
          <mxGeometry width="50" height="50" relative="1" as="geometry">
            <mxPoint x="800" y="480" as="sourcePoint" />
            <mxPoint x="1030" y="480" as="targetPoint" />
          </mxGeometry>
        </mxCell>
        <mxCell id="CV40pXLIkPJn7zv-MI90-27" value="Detecta cambio en searchParams" style="text;html=1;align=center;verticalAlign=middle;resizable=0;points=[];autosize=1;strokeColor=none;fillColor=none;" parent="1" vertex="1">
          <mxGeometry x="800" y="458" width="200" height="30" as="geometry" />
        </mxCell>
        <mxCell id="CV40pXLIkPJn7zv-MI90-28" value="" style="endArrow=classic;html=1;rounded=0;" parent="1" edge="1">
          <mxGeometry width="50" height="50" relative="1" as="geometry">
            <mxPoint x="1030" y="510" as="sourcePoint" />
            <mxPoint x="1030" y="530" as="targetPoint" />
            <Array as="points">
              <mxPoint x="1070" y="510" />
              <mxPoint x="1070" y="530" />
            </Array>
          </mxGeometry>
        </mxCell>
        <mxCell id="CV40pXLIkPJn7zv-MI90-29" value="useEffect() se dispara" style="text;html=1;align=center;verticalAlign=middle;resizable=0;points=[];autosize=1;strokeColor=none;fillColor=none;" parent="1" vertex="1">
          <mxGeometry x="1020" y="488" width="140" height="30" as="geometry" />
        </mxCell>
        <mxCell id="CV40pXLIkPJn7zv-MI90-30" value="" style="endArrow=classic;html=1;rounded=0;" parent="1" edge="1">
          <mxGeometry width="50" height="50" relative="1" as="geometry">
            <mxPoint x="1030" y="575" as="sourcePoint" />
            <mxPoint x="1030" y="595" as="targetPoint" />
            <Array as="points">
              <mxPoint x="1070" y="575" />
              <mxPoint x="1070" y="595" />
            </Array>
          </mxGeometry>
        </mxCell>
        <mxCell id="CV40pXLIkPJn7zv-MI90-31" value="fetchProducts()" style="text;html=1;align=center;verticalAlign=middle;resizable=0;points=[];autosize=1;strokeColor=none;fillColor=none;" parent="1" vertex="1">
          <mxGeometry x="1020" y="555" width="100" height="30" as="geometry" />
        </mxCell>
        <mxCell id="CV40pXLIkPJn7zv-MI90-32" value="GET /api/products" style="text;html=1;align=center;verticalAlign=middle;resizable=0;points=[];autosize=1;strokeColor=none;fillColor=none;" parent="1" vertex="1">
          <mxGeometry x="1020" y="620" width="120" height="30" as="geometry" />
        </mxCell>
        <mxCell id="CV40pXLIkPJn7zv-MI90-33" value="" style="endArrow=classic;html=1;rounded=0;" parent="1" edge="1">
          <mxGeometry width="50" height="50" relative="1" as="geometry">
            <mxPoint x="1030" y="640" as="sourcePoint" />
            <mxPoint x="1210" y="640" as="targetPoint" />
          </mxGeometry>
        </mxCell>
        <mxCell id="CV40pXLIkPJn7zv-MI90-34" value="" style="endArrow=classic;html=1;rounded=0;" parent="1" edge="1">
          <mxGeometry width="50" height="50" relative="1" as="geometry">
            <mxPoint x="1210" y="670" as="sourcePoint" />
            <mxPoint x="1390" y="670" as="targetPoint" />
          </mxGeometry>
        </mxCell>
        <mxCell id="CV40pXLIkPJn7zv-MI90-35" value="Procesa parámetros de filtrado" style="text;html=1;align=center;verticalAlign=middle;resizable=0;points=[];autosize=1;strokeColor=none;fillColor=none;" parent="1" vertex="1">
          <mxGeometry x="1200" y="650" width="190" height="30" as="geometry" />
        </mxCell>
        <mxCell id="CV40pXLIkPJn7zv-MI90-36" value="" style="endArrow=classic;html=1;rounded=0;" parent="1" edge="1">
          <mxGeometry width="50" height="50" relative="1" as="geometry">
            <mxPoint x="1390" y="690" as="sourcePoint" />
            <mxPoint x="1610" y="690" as="targetPoint" />
          </mxGeometry>
        </mxCell>
        <mxCell id="CV40pXLIkPJn7zv-MI90-37" value="Aplica filtros y ordenamiento&lt;div&gt;sobre datos de productos&lt;/div&gt;" style="text;html=1;align=left;verticalAlign=middle;resizable=0;points=[];autosize=1;strokeColor=none;fillColor=none;" parent="1" vertex="1">
          <mxGeometry x="1415" y="650" width="170" height="40" as="geometry" />
        </mxCell>
        <mxCell id="CV40pXLIkPJn7zv-MI90-38" value="" style="endArrow=classic;html=1;rounded=0;" parent="1" edge="1">
          <mxGeometry width="50" height="50" relative="1" as="geometry">
            <mxPoint x="1610" y="750" as="sourcePoint" />
            <mxPoint x="1390" y="750" as="targetPoint" />
          </mxGeometry>
        </mxCell>
        <mxCell id="CV40pXLIkPJn7zv-MI90-39" value="Productos que coinciden&lt;div&gt;con los criterios&lt;/div&gt;" style="text;html=1;align=left;verticalAlign=middle;resizable=0;points=[];autosize=1;strokeColor=none;fillColor=none;" parent="1" vertex="1">
          <mxGeometry x="1415" y="713" width="150" height="40" as="geometry" />
        </mxCell>
        <mxCell id="CV40pXLIkPJn7zv-MI90-40" value="Lista de productos procesada" style="text;html=1;align=center;verticalAlign=middle;resizable=0;points=[];autosize=1;strokeColor=none;fillColor=none;" parent="1" vertex="1">
          <mxGeometry x="1210" y="770" width="180" height="30" as="geometry" />
        </mxCell>
        <mxCell id="CV40pXLIkPJn7zv-MI90-41" value="" style="endArrow=classic;html=1;rounded=0;" parent="1" edge="1">
          <mxGeometry width="50" height="50" relative="1" as="geometry">
            <mxPoint x="1210" y="850" as="sourcePoint" />
            <mxPoint x="1030" y="850" as="targetPoint" />
          </mxGeometry>
        </mxCell>
        <mxCell id="CV40pXLIkPJn7zv-MI90-42" value="JSON response&lt;div&gt;con productos filtrados&lt;/div&gt;" style="text;html=1;align=left;verticalAlign=middle;resizable=0;points=[];autosize=1;strokeColor=none;fillColor=none;" parent="1" vertex="1">
          <mxGeometry x="1050" y="810" width="140" height="40" as="geometry" />
        </mxCell>
        <mxCell id="CV40pXLIkPJn7zv-MI90-43" value="" style="endArrow=classic;html=1;rounded=0;" parent="1" edge="1">
          <mxGeometry width="50" height="50" relative="1" as="geometry">
            <mxPoint x="1030" y="900" as="sourcePoint" />
            <mxPoint x="1030" y="920" as="targetPoint" />
            <Array as="points">
              <mxPoint x="1070" y="900" />
              <mxPoint x="1070" y="920" />
            </Array>
          </mxGeometry>
        </mxCell>
        <mxCell id="CV40pXLIkPJn7zv-MI90-44" value="setProducts(data)" style="text;html=1;align=center;verticalAlign=middle;resizable=0;points=[];autosize=1;strokeColor=none;fillColor=none;" parent="1" vertex="1">
          <mxGeometry x="1020" y="880" width="120" height="30" as="geometry" />
        </mxCell>
        <mxCell id="CV40pXLIkPJn7zv-MI90-46" value="" style="endArrow=classic;html=1;rounded=0;" parent="1" edge="1">
          <mxGeometry width="50" height="50" relative="1" as="geometry">
            <mxPoint x="1030" y="960" as="sourcePoint" />
            <mxPoint x="470" y="960" as="targetPoint" />
          </mxGeometry>
        </mxCell>
        <mxCell id="CV40pXLIkPJn7zv-MI90-47" value="Renderiza productos&lt;div&gt;filtrados&lt;/div&gt;" style="text;html=1;align=left;verticalAlign=middle;resizable=0;points=[];autosize=1;strokeColor=none;fillColor=none;" parent="1" vertex="1">
          <mxGeometry x="480" y="920" width="130" height="40" as="geometry" />
        </mxCell>
      </root>
    </mxGraphModel>
  </diagram>
</mxfile>
